PathFileType	4	(X/Y/Z)	/Users/mathieubourgeois/Desktop/Analyse/Traitement/Sujet_05/Data/Transformed_Sujet_05_velo_80.trc
DataRate	CameraRate	NumFrames	NumMarkers	Units	OrigDataRate	OrigDataStartFrame	OrigNumFrames
120.000000	120.000000	5	36	mm	120.000000	1729	1976
Frame#	Time	RFHD			RANE			STRN			LANI			LKNE			T10			RHUM			RWRB			C7			LFWT			LTOE			RTOE			LWRA			LBWT			RBWT			RFWT			LKNI			RKNI			RKNE			LANE			RANI			LHEE			RHEE			LHUM			LRAD			RRAD			RWRA			LWRB			LFHD			LBHD			RBHD			RSHO			LSHO			CLAV			LCAR			RCAR			
		X1	Y1	Z1	X2	Y2	Z2	X3	Y3	Z3	X4	Y4	Z4	X5	Y5	Z5	X6	Y6	Z6	X7	Y7	Z7	X8	Y8	Z8	X9	Y9	Z9	X10	Y10	Z10	X11	Y11	Z11	X12	Y12	Z12	X13	Y13	Z13	X14	Y14	Z14	X15	Y15	Z15	X16	Y16	Z16	X17	Y17	Z17	X18	Y18	Z18	X19	Y19	Z19	X20	Y20	Z20	X21	Y21	Z21	X22	Y22	Z22	X23	Y23	Z23	X24	Y24	Z24	X25	Y25	Z25	X26	Y26	Z26	X27	Y27	Z27	X28	Y28	Z28	X29	Y29	Z29	X30	Y30	Z30	X31	Y31	Z31	X32	Y32	Z32	X33	Y33	Z33	X34	Y34	Z34	X35	Y35	Z35	X36	Y36	Z36	

1730	14.40833333333333	152.8320770263672	1359.987670898438	98.82831573486321	-328.5383911132812	285.1011047363281	192.302749633789	-201.7261962890625	1148.626220703125	19.46065521240225	-160.7640838623047	582.9840087890625	-56.59252929687506	-49.51233673095701	938.004638671875	-157.4687042236329	-323.2178039550781	1355.274536132812	37.97546768188464	25.4373970031738	1036.442749023438	195.8189086914062	242.278076171875	892.05224609375	246.5128936767578	-94.42091369628906	1415.494995117188	9.757216453552147	-371.53955078125	1090.186279296875	-76.40601348876964	-34.66337203979491	459.7137756347656	-92.35848236083987	-189.5610504150391	138.4412384033203	153.6928253173828	271.425048828125	933.5880126953125	-151.6390838623047	-534.4566040039062	1113.697998046875	-6.561951637268201	-516.3234252929688	1116.039306640625	129.5780792236327	-352.4910888671875	1067.861083984375	166.1701354980468	-37.67641448974609	912.8921508789062	-53.6009597778321	-201.4434509277344	623.0970458984375	104.2894668579101	-203.8831024169922	666.5584106445312	209.0724029541015	-191.6039733886718	592.9102783203125	-135.1852264404297	-290.259521484375	282.232177734375	112.2682723999023	-251.7129364013672	566.6798706054688	-88.52179718017584	-388.1260986328125	282.6960754394531	145.2242889404296	14.76069545745852	1042.453735351562	-152.9630889892579	61.48050308227541	1070.368896484375	-199.5045928955079	68.6828689575195	1071.552001953125	243.0220794677734	275.6192016601562	932.9432983398438	193.2592010498047	237.5954284667969	882.9371337890625	-183.6893768310547	167.6942138671875	1335.731201171875	-45.85068511962897	47.83000564575196	1426.3759765625	-79.94139862060555	29.55836868286132	1472.067993164062	47.40430450439445	-22.48814392089846	1327.250854492188	154.0470733642577	-70.39590454101561	1328.70361328125	-141.8131713867188	-82.64364624023438	1273.166625976562	15.55202579498282	315.1279602050781	923.6898803710938	-227.98388671875	320.1544799804687	929.4287719726562	282.7738342285156	
1731	14.41666666666667	152.0097961425781	1359.879150390625	99.21792602539055	-335.9218139648438	293.7603149414062	193.3777465820312	-202.8866882324219	1148.526000976562	19.04076576232901	-153.9984893798828	575.2404174804688	-56.57827377319342	-50.37762832641599	933.5908203125	-156.8774566650391	-323.9429016113281	1355.248046875	37.53653335571276	25.10249137878415	1036.330078125	195.6186981201171	242.0619964599609	892.1569213867188	246.5149230957031	-95.12940216064453	1415.353393554688	9.860793113708397	-372.3487548828125	1089.744750976562	-77.28736114501964	-23.57968521118163	456.5426025390625	-91.74273681640628	-201.7239990234375	142.5412902832031	153.5174407958984	271.19970703125	933.7415771484375	-151.6792755126953	-535.3712158203125	1113.309204101562	-7.08435964584364	-517.303466796875	1116.204223632812	129.0311584472655	-353.4399108886719	1068.262573242188	165.7342834472655	-38.82608795166015	908.8543701171875	-52.96224212646491	-199.0920867919922	626.48681640625	105.1866149902343	-199.8818054199219	669.7464599609375	209.9110565185546	-183.6425323486328	584.4952392578125	-135.7595825195313	-298.6128540039062	289.062255859375	112.5136337280273	-244.281005859375	556.8033447265625	-90.24993133544928	-396.3187866210938	292.0885314941406	145.9835815429687	14.56360435485842	1042.690307617188	-153.2907104492188	61.39406967163088	1070.722290039062	-199.6657714843751	68.29567718505857	1071.502319335938	242.8143920898437	275.3702087402344	933.08251953125	193.3311157226562	237.4044494628907	883.07373046875	-183.70068359375	167.0509338378906	1335.900024414062	-45.49137115478522	47.19516372680665	1426.461669921875	-79.55601501464852	28.65240859985351	1471.904663085938	47.81977844238272	-23.36963844299318	1327.026611328125	154.0005645751952	-70.70449066162108	1328.866333007812	-141.5179901123048	-83.44023132324219	1272.95166015625	15.45289993286124	314.8888854980469	923.9203491210938	-228.0689239501953	319.9753112792968	929.5048217773438	282.8011474609375	
1732	14.425	151.0851135253906	1359.7236328125	99.76191711425774	-342.7288208007812	300.7841186523438	192.3398742675781	-203.92529296875	1148.36279296875	18.67568397521963	-146.5276947021484	566.5995483398438	-57.05507278442388	-51.40571975708006	928.2979125976562	-156.5992584228516	-324.7345886230469	1355.148803710938	37.10445785522448	24.78948020935056	1036.11669921875	195.3727264404296	241.8682556152343	892.2164306640625	246.5727233886718	-96.00239562988281	1415.1884765625	10.11101150512685	-372.8625793457031	1089.0078125	-78.09444427490246	-12.9111042022705	451.2220153808594	-91.56517028808597	-213.3921356201172	147.5098876953125	153.413589477539	271.0189819335938	933.888427734375	-151.6533508300782	-536.2860717773438	1112.659545898438	-7.639264583587781	-518.2999267578125	1116.179565429688	128.4763183593749	-354.3398132324219	1068.612915039062	165.358673095703	-40.02313995361327	903.8267822265625	-52.08311843872077	-196.2647857666016	629.99072265625	106.1742324829101	-195.652328491211	673.0333251953125	210.8325958251953	-176.1110229492187	575.0227661132812	-136.3205718994141	-306.4843139648438	296.5546569824219	112.7772369384765	-235.3831481933594	545.4307250976562	-90.38618469238287	-403.9661560058594	302.1953430175781	146.6816101074218	14.42559146881105	1042.864624023438	-153.5930633544922	61.34968185424807	1071.107055664062	-199.7383270263672	67.89257812499997	1071.367065429688	242.6041564941406	275.1941223144531	933.1458129882812	193.4121398925781	237.2294616699219	883.197998046875	-183.6556396484375	166.3684539794922	1336.024780273438	-44.95405960083014	46.59017181396485	1426.516723632812	-78.98221588134774	27.69754409790038	1471.746826171875	48.43883895874014	-24.31688880920412	1326.729858398438	153.9835662841796	-71.04373168945311	1329.004638671875	-141.1755371093751	-84.33441162109375	1272.754028320312	15.47589874267569	314.7302856445312	924.0350341796875	-228.0143432617188	319.8091125488281	929.5548706054688	282.890869140625	
1733	14.43333333333333	150.0729370117188	1359.482543945312	100.4412002563476	-350.3890380859375	310.0125732421875	193.3900909423827	-204.9850311279297	1148.149047851562	18.25663566589346	-136.7851715087891	557.2449951171875	-57.82031250000005	-52.56905746459959	922.071044921875	-156.4157257080079	-325.6096496582031	1354.953857421875	36.71515655517565	24.48842620849607	1035.803466796875	195.1049804687499	241.6848754882812	892.2265625	246.6738128662109	-96.92046356201172	1415.002685546875	10.43566703796377	-373.3806762695312	1088.124877929688	-78.95172882080089	-2.447714328765858	444.3594360351562	-90.97280883789065	-224.5524139404297	153.3040618896484	153.4092712402343	270.8753662109375	933.98876953125	-151.5560302734375	-537.1768188476562	1111.775146484375	-8.185690879821911	-519.3058471679688	1115.93212890625	127.9374694824217	-355.2046203613281	1068.995239257812	164.8797454833983	-41.99019622802734	897.9505615234375	-49.3975791931153	-192.9336547851562	633.6728515625	107.1900787353515	-191.2569580078125	676.4783325195312	211.8914031982421	-168.7704162597656	564.895263671875	-136.7955932617188	-313.85302734375	304.6506652832031	112.9939422607421	-227.3791961669922	534.0319213867188	-91.17616271972662	-411.1125183105469	312.8123168945312	147.2444458007812	14.29067802429201	1042.9765625	-153.8353424072266	61.32176589965822	1071.415405273438	-199.7583160400391	67.50338745117185	1071.131591796875	242.4468994140624	275.0079650878906	933.1869506835938	193.5187530517578	237.1062469482422	883.306640625	-183.5563049316407	165.6301116943359	1336.093505859375	-44.32144546508795	45.82352447509766	1426.58935546875	-78.38659667968759	26.69542503356933	1471.522216796875	49.11027145385733	-25.36242866516115	1326.304809570312	154.1185455322265	-71.42352294921874	1329.0517578125	-140.7212066650391	-85.19325256347656	1272.499633789062	15.47340393066397	314.608642578125	924.1377563476562	-227.8746795654297	319.6310729980468	929.5735473632812	283.0310668945312	
1734	14.44166666666667	149.0019073486328	1359.215087890625	101.2421417236327	-356.88037109375	319.5825805664062	193.6426239013671	-206.0239868164062	1147.884033203125	17.81740760803213	-131.4221649169922	547.44384765625	-57.95616531372075	-53.86779403686521	915.0090942382812	-156.1916656494141	-326.5059814453125	1354.709838867188	36.32493591308581	24.17431068420408	1035.388305664062	194.8743286132812	241.4976043701172	892.2130126953125	246.7703247070312	-97.95964050292969	1414.749389648438	10.85629653930654	-373.6828308105469	1086.975708007812	-79.81444549560558	6.717393875122082	437.0757446289062	-91.42285156250003	-235.1750946044922	159.876708984375	153.4362640380859	270.7723693847656	934.0447998046875	-151.3904571533203	-538.0242309570312	1110.72998046875	-8.720496177673473	-520.3739624023438	1115.55517578125	127.3856811523436	-356.0193176269531	1069.3134765625	164.4274902343749	-42.76128768920898	889.7025146484375	-52.56854248046881	-183.6685180664062	637.3795776367188	106.5910339355468	-186.7413787841797	680.119384765625	213.1270446777343	-161.7357025146484	554.1331787109375	-137.1751861572266	-320.7337951660156	313.3480529785156	113.1166763305663	-219.7394409179688	522.2509765625	-91.70732116699224	-417.7296142578125	323.93896484375	147.628677368164	14.12777328491213	1042.990112304688	-154.0648956298829	61.31099700927737	1071.612426757812	-199.7043609619141	66.94329071044919	1071.005615234375	242.3588409423828	274.8006591796875	933.1921997070312	193.6205749511718	236.9988861083985	883.3937377929688	-183.4240112304688	164.8683013916016	1336.114501953125	-43.5241661071778	45.12189483642579	1426.624145507812	-77.64606475830087	25.68195343017577	1471.274780273438	49.90307617187491	-26.36380386352541	1325.830078125	154.4652404785155	-71.76828002929686	1329.027954101562	-140.2415466308595	-86.04573822021484	1272.211059570312	15.53779411315909	314.5082702636719	924.2420654296875	-227.7072448730469	319.4237670898437	929.6080322265625	283.1678466796875	
